<mxfile host="app.diagrams.net" agent="Mozilla/5.0 (Windows NT 10.0; Win64; x64) AppleWebKit/537.36 (KHTML, like Gecko) Chrome/135.0.0.0 Safari/537.36" version="26.2.13">
  <diagram name="第 1 页" id="2BHJ6eeiq_Yv8pMzbxQ_">
    <mxGraphModel dx="1056" dy="677" grid="1" gridSize="10" guides="1" tooltips="1" connect="1" arrows="1" fold="1" page="1" pageScale="1" pageWidth="827" pageHeight="1169" math="0" shadow="0">
      <root>
        <mxCell id="0" />
        <mxCell id="1" parent="0" />
        <mxCell id="kZgw0nkqY03vW8o-zhnK-1" value="User" style="shape=umlLifeline;perimeter=lifelinePerimeter;whiteSpace=wrap;container=1;dropTarget=0;collapsible=0;recursiveResize=0;outlineConnect=0;portConstraint=eastwest;newEdgeStyle={&quot;edgeStyle&quot;:&quot;elbowEdgeStyle&quot;,&quot;elbow&quot;:&quot;vertical&quot;,&quot;curved&quot;:0,&quot;rounded&quot;:0};size=65;" vertex="1" parent="1">
          <mxGeometry x="20" y="20" width="150" height="460" as="geometry" />
        </mxCell>
        <mxCell id="kZgw0nkqY03vW8o-zhnK-2" value="System" style="shape=umlLifeline;perimeter=lifelinePerimeter;whiteSpace=wrap;container=1;dropTarget=0;collapsible=0;recursiveResize=0;outlineConnect=0;portConstraint=eastwest;newEdgeStyle={&quot;edgeStyle&quot;:&quot;elbowEdgeStyle&quot;,&quot;elbow&quot;:&quot;vertical&quot;,&quot;curved&quot;:0,&quot;rounded&quot;:0};size=65;" vertex="1" parent="1">
          <mxGeometry x="220" y="20" width="150" height="460" as="geometry" />
        </mxCell>
        <mxCell id="kZgw0nkqY03vW8o-zhnK-3" value="" style="points=[];perimeter=orthogonalPerimeter;outlineConnect=0;targetShapes=umlLifeline;portConstraint=eastwest;newEdgeStyle={&quot;edgeStyle&quot;:&quot;elbowEdgeStyle&quot;,&quot;elbow&quot;:&quot;vertical&quot;,&quot;curved&quot;:0,&quot;rounded&quot;:0}" vertex="1" parent="kZgw0nkqY03vW8o-zhnK-2">
          <mxGeometry x="70" y="107" width="10" height="290" as="geometry" />
        </mxCell>
        <mxCell id="kZgw0nkqY03vW8o-zhnK-5" value="opt" style="shape=umlFrame;pointerEvents=0;dropTarget=0;strokeColor=#B3B3B3;height=20;width=30" vertex="1" parent="1">
          <mxGeometry x="84" y="329" width="226" height="98" as="geometry" />
        </mxCell>
        <mxCell id="kZgw0nkqY03vW8o-zhnK-6" value="[用户退出]" style="text;strokeColor=none;fillColor=none;align=center;verticalAlign=middle;whiteSpace=wrap;" vertex="1" parent="kZgw0nkqY03vW8o-zhnK-5">
          <mxGeometry x="30" width="196" height="20" as="geometry" />
        </mxCell>
        <mxCell id="kZgw0nkqY03vW8o-zhnK-7" value="选择查看排队信息" style="verticalAlign=bottom;edgeStyle=elbowEdgeStyle;elbow=vertical;curved=0;rounded=0;endArrow=block;" edge="1" parent="1" source="kZgw0nkqY03vW8o-zhnK-1" target="kZgw0nkqY03vW8o-zhnK-3">
          <mxGeometry relative="1" as="geometry">
            <Array as="points">
              <mxPoint x="202" y="127" />
            </Array>
          </mxGeometry>
        </mxCell>
        <mxCell id="kZgw0nkqY03vW8o-zhnK-8" value="检索队列状态" style="curved=1;endArrow=block;rounded=0;" edge="1" parent="1" source="kZgw0nkqY03vW8o-zhnK-3" target="kZgw0nkqY03vW8o-zhnK-3">
          <mxGeometry relative="1" as="geometry">
            <Array as="points">
              <mxPoint x="355" y="179" />
              <mxPoint x="355" y="209" />
            </Array>
          </mxGeometry>
        </mxCell>
        <mxCell id="kZgw0nkqY03vW8o-zhnK-9" value="返回排队号码、前车数量&#xa;和预计等待时间" style="verticalAlign=bottom;edgeStyle=elbowEdgeStyle;elbow=vertical;curved=0;rounded=0;dashed=1;dashPattern=2 3;endArrow=block;" edge="1" parent="1" source="kZgw0nkqY03vW8o-zhnK-3" target="kZgw0nkqY03vW8o-zhnK-1">
          <mxGeometry relative="1" as="geometry">
            <Array as="points">
              <mxPoint x="205" y="261" />
            </Array>
          </mxGeometry>
        </mxCell>
        <mxCell id="kZgw0nkqY03vW8o-zhnK-10" value="取消操作" style="verticalAlign=bottom;edgeStyle=elbowEdgeStyle;elbow=vertical;curved=0;rounded=0;endArrow=block;" edge="1" parent="1" source="kZgw0nkqY03vW8o-zhnK-1" target="kZgw0nkqY03vW8o-zhnK-3">
          <mxGeometry relative="1" as="geometry">
            <Array as="points">
              <mxPoint x="202" y="407" />
            </Array>
          </mxGeometry>
        </mxCell>
      </root>
    </mxGraphModel>
  </diagram>
</mxfile>
